<svg width="74" height="24" viewBox="0 0 74 24" fill="none" xmlns="http://www.w3.org/2000/svg">
<path d="M0 1.824C0.368 1.84 0.84 1.856 1.416 1.872C2.008 1.888 2.592 1.896 3.168 1.896C3.936 1.896 4.664 1.888 5.352 1.872C6.056 1.856 6.552 1.848 6.84 1.848C8.2 1.848 9.328 2.024 10.224 2.376C11.136 2.728 11.808 3.224 12.24 3.864C12.688 4.488 12.912 5.208 12.912 6.024C12.912 6.52 12.808 7.048 12.6 7.608C12.408 8.152 12.064 8.664 11.568 9.144C11.072 9.608 10.4 9.992 9.552 10.296C8.704 10.6 7.624 10.752 6.312 10.752H4.008V10.272H6.072C7.144 10.272 7.96 10.096 8.52 9.744C9.096 9.376 9.48 8.896 9.672 8.304C9.88 7.696 9.984 7.024 9.984 6.288C9.984 5.024 9.712 4.048 9.168 3.36C8.624 2.656 7.68 2.304 6.336 2.304C5.648 2.304 5.192 2.44 4.968 2.712C4.76 2.984 4.656 3.536 4.656 4.368V16.272C4.656 16.848 4.704 17.28 4.8 17.568C4.896 17.856 5.08 18.048 5.352 18.144C5.624 18.24 6.024 18.304 6.552 18.336V18.816C6.168 18.784 5.68 18.768 5.088 18.768C4.512 18.752 3.92 18.744 3.312 18.744C2.64 18.744 2.008 18.752 1.416 18.768C0.84 18.768 0.368 18.784 0 18.816V18.336C0.544 18.304 0.952 18.24 1.224 18.144C1.496 18.048 1.672 17.856 1.752 17.568C1.848 17.28 1.896 16.848 1.896 16.272V4.368C1.896 3.776 1.848 3.344 1.752 3.072C1.672 2.784 1.488 2.592 1.2 2.496C0.928 2.384 0.528 2.32 0 2.304V1.824ZM4.056 10.344C4.872 10.376 5.528 10.416 6.024 10.464C6.52 10.496 6.936 10.528 7.272 10.56C7.608 10.592 7.92 10.632 8.208 10.68C9.408 10.84 10.28 11.16 10.824 11.64C11.384 12.12 11.768 12.856 11.976 13.848L12.576 16.296C12.72 16.984 12.872 17.472 13.032 17.76C13.208 18.048 13.464 18.192 13.8 18.192C14.056 18.176 14.264 18.104 14.424 17.976C14.6 17.832 14.784 17.64 14.976 17.4L15.312 17.664C14.944 18.16 14.56 18.536 14.16 18.792C13.76 19.032 13.224 19.152 12.552 19.152C11.864 19.152 11.272 18.976 10.776 18.624C10.296 18.256 9.952 17.568 9.744 16.56L9.264 14.16C9.12 13.472 8.96 12.88 8.784 12.384C8.608 11.872 8.36 11.472 8.04 11.184C7.736 10.896 7.288 10.752 6.696 10.752H4.104L4.056 10.344Z" fill="black"/>
<path d="M21.5781 6.096C22.9861 6.096 24.0901 6.52 24.8901 7.368C25.6901 8.216 26.0901 9.56 26.0901 11.4H17.8101L17.7621 10.944H23.5461C23.5621 10.16 23.4981 9.44 23.3541 8.784C23.2101 8.112 22.9861 7.576 22.6821 7.176C22.3781 6.776 21.9781 6.576 21.4821 6.576C20.7941 6.576 20.1941 6.944 19.6821 7.68C19.1861 8.4 18.8821 9.56 18.7701 11.16L18.8421 11.28C18.8261 11.504 18.8101 11.752 18.7941 12.024C18.7781 12.28 18.7701 12.536 18.7701 12.792C18.7701 13.896 18.9381 14.824 19.2741 15.576C19.6101 16.328 20.0501 16.896 20.5941 17.28C21.1381 17.648 21.6901 17.832 22.2501 17.832C22.6821 17.832 23.0981 17.768 23.4981 17.64C23.9141 17.496 24.3061 17.264 24.6741 16.944C25.0421 16.608 25.3701 16.152 25.6581 15.576L26.1381 15.768C25.9461 16.312 25.6501 16.848 25.2501 17.376C24.8501 17.904 24.3381 18.336 23.7141 18.672C23.0901 18.992 22.3621 19.152 21.5301 19.152C20.4101 19.152 19.4341 18.904 18.6021 18.408C17.7701 17.896 17.1301 17.168 16.6821 16.224C16.2341 15.28 16.0101 14.16 16.0101 12.864C16.0101 11.44 16.2421 10.224 16.7061 9.216C17.1701 8.208 17.8181 7.44 18.6501 6.912C19.4981 6.368 20.4741 6.096 21.5781 6.096Z" fill="black"/>
<path d="M31.1273 18.984C30.4552 18.984 29.8792 18.856 29.3993 18.6C28.9193 18.344 28.5592 17.992 28.3193 17.544C28.0793 17.096 27.9592 16.584 27.9592 16.008C27.9592 15.304 28.1193 14.736 28.4393 14.304C28.7593 13.856 29.1672 13.496 29.6632 13.224C30.1753 12.952 30.7113 12.728 31.2712 12.552C31.8472 12.36 32.3833 12.184 32.8792 12.024C33.3913 11.848 33.8073 11.648 34.1273 11.424C34.4632 11.2 34.6312 10.904 34.6312 10.536V8.904C34.6312 8.328 34.5353 7.872 34.3433 7.536C34.1673 7.184 33.9193 6.936 33.5993 6.792C33.2952 6.648 32.9272 6.576 32.4953 6.576C32.1273 6.576 31.7353 6.632 31.3193 6.744C30.9032 6.84 30.5753 7.04 30.3353 7.344C30.6873 7.44 30.9753 7.632 31.1992 7.92C31.4392 8.192 31.5592 8.536 31.5592 8.952C31.5592 9.4 31.4072 9.752 31.1033 10.008C30.8153 10.264 30.4473 10.392 29.9993 10.392C29.5033 10.392 29.1353 10.24 28.8953 9.936C28.6553 9.616 28.5352 9.248 28.5352 8.832C28.5352 8.4 28.6392 8.048 28.8472 7.776C29.0713 7.504 29.3593 7.248 29.7113 7.008C30.0953 6.752 30.5832 6.536 31.1752 6.36C31.7832 6.184 32.4552 6.096 33.1912 6.096C33.8792 6.096 34.4713 6.176 34.9673 6.336C35.4793 6.48 35.9033 6.72 36.2393 7.056C36.6393 7.424 36.9033 7.888 37.0312 8.448C37.1592 8.992 37.2233 9.656 37.2233 10.44V17.064C37.2233 17.464 37.2713 17.752 37.3673 17.928C37.4793 18.088 37.6553 18.168 37.8953 18.168C38.0553 18.168 38.2072 18.128 38.3512 18.048C38.5112 17.968 38.6953 17.848 38.9033 17.688L39.1432 18.096C38.8073 18.368 38.4633 18.584 38.1113 18.744C37.7753 18.904 37.3433 18.984 36.8153 18.984C36.3032 18.984 35.8872 18.904 35.5672 18.744C35.2472 18.584 35.0073 18.352 34.8473 18.048C34.7033 17.744 34.6312 17.368 34.6312 16.92C34.2152 17.592 33.7192 18.104 33.1432 18.456C32.5672 18.808 31.8953 18.984 31.1273 18.984ZM32.2793 17.832C32.7273 17.832 33.1432 17.704 33.5272 17.448C33.9272 17.192 34.2952 16.808 34.6312 16.296V11.52C34.4552 11.776 34.1992 12 33.8633 12.192C33.5273 12.368 33.1672 12.552 32.7832 12.744C32.3993 12.936 32.0312 13.16 31.6793 13.416C31.3433 13.656 31.0633 13.968 30.8393 14.352C30.6152 14.736 30.5033 15.224 30.5033 15.816C30.5033 16.44 30.6632 16.936 30.9832 17.304C31.3032 17.656 31.7353 17.832 32.2793 17.832Z" fill="black"/>
<path d="M44.0364 0V16.584C44.0364 17.256 44.1644 17.712 44.4204 17.952C44.6924 18.192 45.1404 18.312 45.7644 18.312V18.816C45.4924 18.8 45.0684 18.784 44.4924 18.768C43.9164 18.736 43.3404 18.72 42.7644 18.72C42.1884 18.72 41.6044 18.736 41.0124 18.768C40.4364 18.784 40.0044 18.8 39.7164 18.816V18.312C40.3404 18.312 40.7804 18.192 41.0364 17.952C41.3084 17.712 41.4444 17.256 41.4444 16.584V2.88C41.4444 2.16 41.3244 1.632 41.0844 1.296C40.8444 0.944 40.3884 0.768 39.7164 0.768V0.263999C40.2284 0.312 40.7244 0.336 41.2044 0.336C41.7324 0.336 42.2364 0.312 42.7164 0.263999C43.1964 0.2 43.6364 0.112 44.0364 0Z" fill="black"/>
<path d="M54.6431 6.096C55.1071 6.096 55.4991 6.192 55.8191 6.384C56.1551 6.576 56.4031 6.824 56.5631 7.128C56.7391 7.416 56.8271 7.744 56.8271 8.112C56.8271 8.576 56.6831 8.976 56.3951 9.312C56.1231 9.632 55.7551 9.792 55.2911 9.792C54.8911 9.792 54.5471 9.672 54.2591 9.432C53.9871 9.192 53.8511 8.864 53.8511 8.448C53.8511 8.096 53.9391 7.8 54.1151 7.56C54.3071 7.304 54.5231 7.104 54.7631 6.96C54.6031 6.832 54.4111 6.776 54.1871 6.792C53.7551 6.808 53.3551 6.952 52.9871 7.224C52.6191 7.48 52.3071 7.816 52.0511 8.232C51.7951 8.632 51.5951 9.064 51.4511 9.528C51.3071 9.992 51.2351 10.424 51.2351 10.824V16.344C51.2351 17.128 51.4511 17.656 51.8831 17.928C52.3151 18.184 52.9151 18.312 53.6831 18.312V18.816C53.3151 18.8 52.7871 18.784 52.0991 18.768C51.4271 18.736 50.7151 18.72 49.9631 18.72C49.3871 18.72 48.8111 18.736 48.2351 18.768C47.6591 18.784 47.2191 18.8 46.9151 18.816V18.312C47.5391 18.312 47.9791 18.192 48.2351 17.952C48.5071 17.712 48.6431 17.256 48.6431 16.584V9.048C48.6431 8.328 48.5231 7.8 48.2831 7.464C48.0431 7.112 47.5871 6.936 46.9151 6.936V6.432C47.4271 6.48 47.9231 6.504 48.4031 6.504C48.9471 6.504 49.4511 6.48 49.9151 6.432C50.3951 6.368 50.8351 6.28 51.2351 6.168V8.928C51.4271 8.464 51.6831 8.016 52.0031 7.584C52.3231 7.152 52.7071 6.8 53.1551 6.528C53.6031 6.24 54.0991 6.096 54.6431 6.096Z" fill="black"/>
<path d="M69.1187 6.432V6.912C68.8147 6.96 68.5347 7.12 68.2787 7.392C68.0227 7.648 67.7747 8.096 67.5347 8.736L63.7907 18.768L63.2147 19.344L58.5347 8.28C58.2307 7.656 57.9347 7.28 57.6467 7.152C57.3747 7.008 57.1427 6.936 56.9507 6.936V6.432C57.3507 6.48 57.7747 6.52 58.2227 6.552C58.6707 6.568 59.1347 6.576 59.6147 6.576C60.1587 6.576 60.7027 6.56 61.2467 6.528C61.8067 6.496 62.3267 6.464 62.8067 6.432V6.936C62.4227 6.936 62.0787 6.968 61.7747 7.032C61.4867 7.08 61.2947 7.232 61.1987 7.488C61.1187 7.728 61.1987 8.144 61.4387 8.736L64.4147 16.056L64.2467 16.128L66.6707 9.696C66.9107 9.056 67.0067 8.544 66.9587 8.16C66.9107 7.76 66.7427 7.464 66.4547 7.272C66.1667 7.064 65.7427 6.944 65.1827 6.912V6.432C65.4547 6.448 65.7027 6.464 65.9267 6.48C66.1667 6.48 66.3987 6.488 66.6227 6.504C66.8467 6.504 67.0707 6.504 67.2947 6.504C67.6467 6.504 67.9747 6.496 68.2787 6.48C68.5987 6.464 68.8787 6.448 69.1187 6.432ZM63.7907 18.768L62.9267 21.024C62.7667 21.424 62.5987 21.76 62.4227 22.032C62.2627 22.304 62.0867 22.528 61.8947 22.704C61.6547 22.928 61.3587 23.088 61.0067 23.184C60.6547 23.28 60.3027 23.328 59.9507 23.328C59.6147 23.328 59.2947 23.264 58.9907 23.136C58.7027 23.024 58.4627 22.848 58.2707 22.608C58.0787 22.368 57.9827 22.072 57.9827 21.72C57.9827 21.304 58.1187 20.968 58.3907 20.712C58.6627 20.456 59.0227 20.328 59.4707 20.328C59.8707 20.328 60.2067 20.432 60.4787 20.64C60.7507 20.864 60.8867 21.184 60.8867 21.6C60.8867 21.888 60.8067 22.136 60.6467 22.344C60.5027 22.552 60.3107 22.712 60.0707 22.824C60.1187 22.84 60.1667 22.848 60.2147 22.848C60.2627 22.848 60.3027 22.848 60.3347 22.848C60.7827 22.848 61.1827 22.696 61.5347 22.392C61.8867 22.104 62.1827 21.632 62.4227 20.976L63.2867 18.672L63.7907 18.768Z" fill="black"/>
<path d="M71.3944 15.864C71.8744 15.864 72.2744 16.024 72.5944 16.344C72.9304 16.648 73.0984 17.04 73.0984 17.52C73.0984 17.984 72.9304 18.376 72.5944 18.696C72.2744 19 71.8744 19.152 71.3944 19.152C70.9144 19.152 70.5064 19 70.1704 18.696C69.8504 18.376 69.6904 17.984 69.6904 17.52C69.6904 17.04 69.8504 16.648 70.1704 16.344C70.5064 16.024 70.9144 15.864 71.3944 15.864Z" fill="black"/>
</svg>
